<svg enable-background="new 0 0 400 225.1337891" height="225.133789" viewBox="0 0 400 225.1337891" width="400" xmlns="http://www.w3.org/2000/svg"><g fill="#ff2a2a"><path d="m0 0h64.71875c32.6376953 0 40.9824219 20.3974609 40.9824219 34.1210938 0 19.1005859-10.7558594 24.4785156-16.3183594 27.2597656 16.3183594 6.1201172 20.5839844 19.1005859 20.5839844 32.2666016 0 10.5703125-4.4511719 20.5839844-11.4970703 27.4453125-7.6035156 7.4179688-14.8359375 12.0537109-42.0947266 12.0537109h-56.375zm26.7041016 52.1083984h32.6367188c10.9414063 0 19.6572266-4.2646484 19.6572266-14.8349609 0-10.9404297-7.7890625-14.2783203-20.3984375-14.2783203h-31.8955079zm0 58.0429688h34.1201172c13.5380859 0 21.3261719-5.9335938 21.3261719-19.4707031 0-11.6826172-10.0136719-16.1337891-20.0273438-16.1337891h-35.4189453z"/><path d="m145.0166016 0h64.71875c32.6376953 0 40.9824219 20.3974609 40.9824219 34.1210938 0 19.1005859-10.7558594 24.4785156-16.3183594 27.2597656 16.3183594 6.1201172 20.5839844 19.1005859 20.5839844 32.2666016 0 10.5703125-4.4511719 20.5839844-11.4970703 27.4453125-7.6035156 7.4179688-14.8359375 12.0537109-42.0947266 12.0537109h-56.375zm26.7041015 52.1083984h32.6367188c10.9414063 0 19.6572266-4.2646484 19.6572266-14.8349609 0-10.9404297-7.7890625-14.2783203-20.3984375-14.2783203h-31.8955078v29.1132812zm0 58.0429688h34.1201172c13.5380859 0 21.3261719-5.9335938 21.3261719-19.4707031 0-11.6826172-10.0136719-16.1337891-20.0273438-16.1337891h-35.4189453z"/><path d="m290.0332031 0h64.71875c32.6376953 0 40.9824219 20.3974609 40.9824219 34.1210938 0 19.1005859-10.7558594 24.4785156-16.3173828 27.2597656 16.3173828 6.1201172 20.5830078 19.1005859 20.5830078 32.2666015 0 10.5703125-4.4511719 20.5839844-11.4970703 27.4453125-7.6035156 7.4179688-14.8359375 12.0537109-42.0947266 12.0537109h-56.375zm26.7041016 52.1083984h32.6367188c10.9414063 0 19.6572266-4.2646484 19.6572266-14.8349609 0-10.9404297-7.7890625-14.2783203-20.3984375-14.2783203h-31.8955078v29.1132812zm0 58.0429688h34.1210938c13.5371094 0 21.3251953-5.9335938 21.3251953-19.4707031 0-11.6826172-10.0126953-16.1337891-20.0273438-16.1337891h-35.4189453z"/><path d="m60.0644531 220.5595703c-.7070313.6396484-1.3369141 1.5908203-1.8886719 2.8505859-.3769531.8173828-.7412109 1.2265625-1.09375 1.2265625-.2226563 0-.5419922-.0664063-.9619141-.1992188-6.1875-1.4589844-11.6796875-3.7900391-16.4755859-6.9941406-4.7070313-3.1601563-8.3525391-6.9394531-10.9384766-11.3369141-.8398438 2.0332031-1.7685547 3.7792969-2.7832031 5.2373047-4.2001953 5.9892578-11.5361328 10.3535156-22.0117188 13.09375-.5292969.0878906-.8398438.1328125-.9277344.1328125-.3759766 0-.7402344-.3652344-1.09375-1.09375-.486328-.8408202-1.1162108-1.6464843-1.8896483-2.4199218 11.2255859-2.3642578 18.8505859-6.4638672 22.8720703-12.2978516.8837891-1.28125 1.6015625-2.7070313 2.1542969-4.2763672h-14.9824219l-9.0488281.1328125c-.3544922 0-.53125-.1767578-.53125-.53125v-2.8837891c0-.3535156.1767578-.5302734.53125-.5302734l8.0878906.1328125v-9.4140625l-.1328125-5.8017578c0-.3525391.1767578-.5292969.5302734-.5292969l9.5800781.1318359h8.2861328c0-3.2255859-.1318359-5.5908203-.3964844-7.09375 1.0605469.0449219 2.4521484.1552734 4.1767578.3320313.6396484.0664063.9609375.2871094.9609375.6630859 0 .1103516-.1113281.4970703-.3320313 1.1601563-.1982422.4199219-.3310547 2.0664063-.3974609 4.9384766h8.6181641l9.5146484-.1318359c.3525391 0 .5292969.1767578.5292969.5292969l-.1328125 5.8017578v9.4140625l8.4873048-.1328125c.3525391 0 .5292969.1767578.5292969.5302734v2.8837891c0 .3544922-.1767578.53125-.5292969.53125l-9.0166016-.1328125h-17.4697265c5.546875 8.4638672 14.9394531 13.8232422 28.1757812 16.0771484zm-.9277343-46.1435547c0 .3544922-.1884766.53125-.5644531.53125l-8.8173828-.1328125h-9.3466797l.1328125 5.5029297c0 .3535156-.1884766.5302734-.5644531.5302734h-2.9824219c-.3544922 0-.53125-.1767578-.53125-.5302734l.1328125-5.5029297h-14.2539063l.1328125 5.5029297c0 .3535156-.1777344.5302734-.5302734.5302734h-3.0830078c-.3095703 0-.4638672-.1767578-.4638672-.5302734l.1318359-5.5029297h-9.0820313l-8.8505859.1328125c-.3535156 0-.5302734-.1767578-.5302734-.53125v-2.9492188c0-.3535156.1767578-.5302734.5302734-.5302734l8.8505859.1318359h9.0820313c0-3.5791016-.1542969-5.9550781-.4638672-7.1259766 1.3925781.0654297 2.8183594.1767578 4.2763672.3310547.4863281.0888672.7294922.2978516.7294922.6298828 0 .1767578-.1113281.4638672-.3310547.8613281-.265625.5527344-.3984375 2.3203125-.3984375 5.3037109h14.2539063c0-3.6240234-.1552734-6.0214844-.4638672-7.1923828 1.6796875.0664063 3.09375.1982422 4.2431641.3974609.5068359.0888672.7617188.2978516.7617188.6298828 0 .2431641-.1103516.5302734-.3310547.8613281-.2646484.4863281-.3974609 2.1445313-.3974609 4.9726563v.3310547h9.3466797l8.8173828-.1318359c.3759766 0 .5644531.1767578.5644531.5302734v2.9492189zm-31.8564454 14.3867188h-14.1865234v12h13.0927734c.663086-3.0712891 1.0283204-7.0712891 1.09375-12zm18.53125 12v-12h-14.5195312c-.1777344 5.2597656-.5419922 9.2597656-1.09375 12z"/><path d="m129.9404297 188.3056641c-.8173828.8183594-1.46875 1.7236328-1.9550781 2.71875-.3974609.7285156-.6953125 1.09375-.8945313 1.09375-.1552734 0-.4755859-.1328125-.9609375-.3984375-12.3320313-5.4580078-21.8339844-12.9716797-28.5087891-22.5400391-6.2529297 9.1484375-15.3476563 16.7060547-27.2802734 22.6728516-.4863281.265625-.828125.3984375-1.0273438.3984375-.2207031 0-.5205078-.3427734-.8955078-1.0283203-.5751953-.9492188-1.2705078-1.7119141-2.0878906-2.2871094 6.4296875-2.6738281 12.1865234-6.1328125 17.2695313-10.375 4.2646484-3.5800781 7.7236328-7.4589844 10.3759766-11.6357422.8388672-1.4580078 1.4257813-2.7177734 1.7558594-3.7783203 1.6796875.2207031 3.0947266.5078125 4.2441406.8613281.640625.1992188.9609375.4755859.9609375.8291016 0 .3320313-.1552734.5751953-.4638672.7294922-.0664063.0439453-.3105469.2099609-.7294922.4970703 4.2421875 5.6796875 9.0605469 10.3974609 14.453125 14.1542969 4.4863281 3.1376953 9.7333984 5.8339843 15.7441406 8.0878906zm-5.1699219 13.6240234c0 .3544922-.1777344.5302734-.5302734.5302734l-9.3808594-.1318359h-20.7509766c-2.3203125 5.8115234-4.6748047 11.0380859-7.0615234 15.6787109 7.625-.5078125 15.9882813-1.2705078 25.09375-2.2871094-1.8554688-2.3867188-3.9785156-4.8837891-6.3642578-7.4921875-.1552734-.1542969-.2324219-.2861328-.2324219-.3974609 0-.1542969.2099609-.3310547.6298828-.5302734l1.9882813-1.09375c.265625-.1328125.4648438-.1992188.5966797-.1992188.1328125 0 .265625.0664063.3984375.1992188 4.0878906 4.1328125 8.4414063 9.4912109 13.0605469 16.0771484.1103516.1533203.1660156.2861328.1660156.3974609 0 .1982422-.1777344.4091797-.5302734.6298828l-2.0888672 1.4257813c-.3759766.2197266-.6298828.3310547-.7626953.3310547-.1542969 0-.3310547-.1328125-.5302734-.3974609-1.8115234-2.7626953-3.1044922-4.6630859-3.8779297-5.7021484-11.3154297 1.4804688-23.7783203 2.71875-37.3916016 3.7128906-1.4580078.1542969-2.3203125.3642578-2.5859375.6298828-.265625.2646484-.5634766.3974609-.8945313.3974609-.3320313 0-.5742188-.2431641-.7285156-.7294922-.3769531-1.2148438-.71875-2.7402344-1.0283203-4.5742188 1.1054688.0664063 2.2314453.0996094 3.3808594.0996094 1.1943359 0 2.5302734-.0332031 4.0117188-.0996094.5966797 0 1.5683594-.0439453 2.9160156-.1318359 2.8720703-5.3925781 5.2490234-10.7070313 7.1279297-15.9443359h-8.1220703l-9.3144531.1318359c-.3974609 0-.5966797-.1757813-.5966797-.5302734v-3.0166016c0-.3535156.1992188-.5302734.5966797-.5302734l9.3144531.1328125h33.5800781l9.3808594-.1328125c.3525391 0 .5302734.1767578.5302734.5302734v3.0166016zm-12.8291015-12.4306641c0 .3535156-.1767578.5302734-.5302734.5302734l-7.9550781-.1318359h-11.0058595l-7.9228516.1318359c-.375 0-.5634766-.1767578-.5634766-.5302734v-2.9501953c0-.3535156.1884766-.5302734.5634766-.5302734l7.9228516.1328125h11.0058594l7.9550781-.1328125c.3535156 0 .5302734.1767578.5302734.5302734v2.9501953z"/><path d="m159.4765625 179.7871094c0 .3974609-.1884766.5966797-.5644531.5966797l-7.1259766-.1328125h-8.3535156l-7.1279297.1328125c-.3535156 0-.5292969-.1992188-.5292969-.5966797v-2.8183594c0-.3525391.1757813-.5302734.5292969-.5302734l7.1279297.1328125h8.3535156l7.1259766-.1328125c.3759766 0 .5644531.1777344.5644531.5302734zm-1.8896484 43.5898437c0 .3525391-.1884766.5302734-.5634766.5302734h-2.7851563c-.3535156 0-.5302734-.1777344-.5302734-.5302734v-2.2539063h-11.0048828v3.4472656c0 .375-.1767578.5634766-.5302734.5634766h-2.7841797c-.3759766 0-.5644531-.1884766-.5644531-.5634766l.1328125-9.9775391v-4.1445313l-.1328125-5.8994141c0-.3535156.1777344-.53125.53125-.53125l6 .1328125h5.6357422l6.0644531-.1328125c.3535156 0 .53125.1777344.53125.53125l-.1328125 4.8388672v4.4091797zm.2646484-52.9716797c0 .3544922-.1875.53125-.5625.53125l-5.9677734-.1328125h-5.8339844l-5.9658203.1328125c-.3769531 0-.5644531-.1767578-.5644531-.53125v-2.7177734c0-.3535156.1875-.5302734.5644531-.5302734l5.9658203.1328125h5.8339844l5.9677734-.1328125c.375 0 .5625.1767578.5625.5302734zm-.9609375 18.5966797c0 .3535156-.2099609.5302734-.6298828.5302734l-5.5351563-.1328125h-5.1054688l-5.6357422.1328125c-.3535156 0-.5292969-.1767578-.5292969-.5302734v-2.6513672c0-.3535156.1757813-.53125.5292969-.53125l5.6357422.1328125h5.1054688l5.5351563-.1328125c.4199219 0 .6298828.1777344.6298828.53125zm0 9.0166016c0 .3759766-.2099609.5634766-.6298828.5634766l-5.5351563-.1328125h-5.1054688l-5.6357422.1328125c-.3535156 0-.5292969-.1875-.5292969-.5634766v-2.6523438c0-.3525391.1757813-.5302734.5292969-.5302734l5.6357422.1328125h5.1054688l5.5351563-.1328125c.4199219 0 .6298828.1777344.6298828.5302734zm-3.1826172 19.7890625v-10.3417969h-11.0048828v10.3417969zm42.4960938-29.0703125c0 .3535156-.1875.5292969-.5634766.5292969l-9.0820313-.1318359h-7.0605469v11.2041016h3.9443359l8.0878906-.1328125c.3535156 0 .53125.1767578.53125.5302734l-.1328125 6.3974609v5.7675781l.1328125 11.2705078c0 .3535156-.1777344.53125-.53125.53125h-3.0820313c-.3535156 0-.53125-.1777344-.53125-.53125v-2.9833984h-20.2197266v3.3818359c0 .375-.1777344.5634766-.53125.5634766h-3.0820313c-.3535156 0-.53125-.1884766-.53125-.5634766l.1328125-11.4697266v-5.0712891l-.1328125-7.2929688c0-.3535156.1777344-.5302734.53125-.5302734l8.0888672.1328125h3.2470703v-11.2041016h-5.7001953l-9.0166016.1318359c-.3544922 0-.5302734-.1757813-.5302734-.5292969v-2.9511719c0-.3525391.1757813-.5302734.5302734-.5302734l9.0166016.1328125h5.7001953v-11.5019531c-3.6679688.8173828-7.4472656 1.4912109-11.3359375 2.0214844-.3095703.0449219-.53125.0664063-.6640625.0664063-.3300781 0-.6289063-.3427734-.8945313-1.0273438-.375-.9941406-.9169922-1.8447266-1.6230469-2.5527344 9.4570313-.8837891 17.6005859-2.6962891 24.4296875-5.4365234 1.7451172-.7285156 3.0820313-1.4794922 4.0107422-2.2539063 1.1494141.9941406 2.0761719 1.9453125 2.7851563 2.8515625.3085938.3759766.4638672.7177734.4638672 1.0273438 0 .3535156-.3652344.5302734-1.09375.5302734-.5966797 0-1.2929688.1650391-2.0888672.4970703-3.3818359 1.2597656-6.6855469 2.3427734-9.9111328 3.2480469v12.5302734h7.0605469l9.0820313-.1328125c.3759766 0 .5634766.1777344.5634766.5302734v2.9511721zm-8.2871094 28.8378906v-13.6230469h-20.2197266v13.6230469z"/><path d="m229.5185547 200.7363281c-5.9228516 9.1269531-14 16.2763672-24.2314453 21.4472656l-2.9833984-3.9111328c9.4794922-4.9501953 16.8730469-11.3037109 22.1757813-19.0615234 4.5527344-6.6728516 7.8681641-14.828125 9.9453125-24.4628906h-28.5078125v-4.5410156h35.203125c-1.9882813 10.0332031-4.9726563 18.6953125-8.9501953 25.9882813 6.1435547 7.3808594 11.4140625 14.9824219 15.8115234 22.8056641l-5.0048828 3.1826172c-3.5800782-7.3593751-8.0664063-14.5078126-13.4580079-21.4472658z"/><path d="m271.5498047 177.2011719c-3.1816406 7.6025391-7.3476563 14.1103516-12.4960938 19.5244141l-3.8779297-2.9833984c7.2480469-7.6904297 12.1308594-17.1044922 14.6503906-28.2421875l5.3710938.8291016c-.4648438 1.7451172-1.1162109 3.8671875-1.9560547 6.3642578h23.5351563c-2.1210938 15.6015625-6.4414063 27.4912109-12.9609375 35.6669922-5.0605469 6.3427734-12.2099609 11.359375-21.4472656 15.0498047l-2.9833984-3.6464844c9.6132813-3.8232422 16.8613281-9.1826172 21.7460938-16.0771484 4.7070313-6.6298828 7.8886719-15.4580078 9.546875-26.4853516h-19.1279298z"/><path d="m305.3291016 192.3173828h36.9267578v5.0380859h-36.9267578z"/><path d="m364.4316406 168.4833984c0 12.8613281-.2207031 22.1425781-.6621094 27.8447266-.3759766 4.7734375-1.0166016 8.5742188-1.921875 11.4023438-1.7910156 5.6132813-5.0947266 10.4863281-9.9130859 14.6191406l-3.9433594-3.0830078c4.3085938-3.0712891 7.3916016-7.5693359 9.2480469-13.4912109.8388672-2.8291016 1.4033203-7.4804688 1.6904297-13.9560547.2207031-5.0166016.3320313-12.7949219.3320313-23.3359375h5.1699218zm14.453125 46.0429688c7.359375-4.9941406 13.2373047-12.7734375 17.6347656-23.3369141l3.4804688 4.5419922c-5.7460938 11.7792969-13.5351563 20.6503906-23.3691406 26.6181641l-2.9169922-1.5253906v-52.8056641h5.1708984z"/></g></svg>